<svg xmlns="http://www.w3.org/2000/svg" width="1920" height="1080" viewBox="0 0 1920 1080" role="img" aria-labelledby="title desc"><title id="title">Bilacert ECS ECNS hero background</title><desc id="desc">Brand-aligned Bilacert telecom licensing hero artwork.</desc><defs><linearGradient id="bg" x1="0" y1="0" x2="1" y2="1"><stop offset="0" stop-color="#061D35"/><stop offset=".44" stop-color="#0A2B4C"/><stop offset="1" stop-color="#1A4A6B"/></linearGradient><radialGradient id="glow" cx="78%" cy="40%" r="58%"><stop offset="0" stop-color="#F4B366" stop-opacity=".35"/><stop offset=".45" stop-color="#F2994A" stop-opacity=".13"/><stop offset="1" stop-color="#F2994A" stop-opacity="0"/></radialGradient><linearGradient id="panel" x1="0" y1="0" x2="1" y2="1"><stop offset="0" stop-color="#fff" stop-opacity=".22"/><stop offset="1" stop-color="#fff" stop-opacity=".06"/></linearGradient><pattern id="grid" width="72" height="72" patternUnits="userSpaceOnUse"><path d="M72 0H0V72" fill="none" stroke="#fff" stroke-opacity=".045"/></pattern><filter id="s" x="-30%" y="-30%" width="160%" height="160%"><feDropShadow dx="0" dy="26" stdDeviation="22" flood-color="#02101E" flood-opacity=".34"/></filter></defs><rect width="1920" height="1080" fill="url(#bg)"/><rect width="1920" height="1080" fill="url(#grid)"/><rect width="1920" height="1080" fill="url(#glow)"/><path d="M0 0H780C690 230 690 410 760 590C830 760 800 920 700 1080H0Z" fill="#04182C" opacity=".62"/><path d="M0 0H1060C900 250 900 455 1000 635C1090 800 1080 940 970 1080H0Z" fill="#0A2B4C" opacity=".24"/><g filter="url(#s)"><rect x="1080" y="278" width="668" height="402" rx="38" fill="url(#panel)" stroke="#fff" stroke-opacity=".2"/><circle cx="1226" cy="476" r="54" fill="#F2994A" opacity=".88"/><circle cx="1444" cy="382" r="42" fill="#fff" opacity=".16"/><circle cx="1586" cy="548" r="46" fill="#fff" opacity=".14"/><circle cx="1340" cy="590" r="38" fill="#F4B366" opacity=".58"/><path d="M1276 456l128-60M1266 510l44 60M1378 580l164-30M1478 412l82 104" stroke="#fff" stroke-opacity=".3" stroke-width="10" stroke-linecap="round"/><path d="M1200 476l20 22 36-42" fill="none" stroke="#fff" stroke-width="11" stroke-linecap="round" stroke-linejoin="round"/></g><path d="M1012 784C1160 720 1310 710 1462 756C1600 798 1728 780 1840 708" fill="none" stroke="#F2994A" stroke-width="5" stroke-linecap="round" opacity=".58"/><path d="M1050 840C1196 788 1345 786 1486 828C1605 864 1718 850 1810 800" fill="none" stroke="#fff" stroke-opacity=".18" stroke-width="4" stroke-linecap="round"/></svg>