<svg xmlns="http://www.w3.org/2000/svg" width="1920" height="1080" viewBox="0 0 1920 1080" role="img" aria-labelledby="title desc"><title id="title">Bilacert ICASA type approval hero background</title><desc id="desc">Brand-aligned Bilacert telecom compliance hero artwork.</desc><defs><linearGradient id="bg" x1="0" y1="0" x2="1" y2="1"><stop offset="0" stop-color="#061D35"/><stop offset=".44" stop-color="#0A2B4C"/><stop offset="1" stop-color="#1A4A6B"/></linearGradient><radialGradient id="glow" cx="78%" cy="40%" r="58%"><stop offset="0" stop-color="#F4B366" stop-opacity=".35"/><stop offset=".45" stop-color="#F2994A" stop-opacity=".13"/><stop offset="1" stop-color="#F2994A" stop-opacity="0"/></radialGradient><linearGradient id="panel" x1="0" y1="0" x2="1" y2="1"><stop offset="0" stop-color="#fff" stop-opacity=".22"/><stop offset="1" stop-color="#fff" stop-opacity=".06"/></linearGradient><pattern id="grid" width="72" height="72" patternUnits="userSpaceOnUse"><path d="M72 0H0V72" fill="none" stroke="#fff" stroke-opacity=".045"/></pattern><filter id="s" x="-30%" y="-30%" width="160%" height="160%"><feDropShadow dx="0" dy="26" stdDeviation="22" flood-color="#02101E" flood-opacity=".34"/></filter></defs><rect width="1920" height="1080" fill="url(#bg)"/><rect width="1920" height="1080" fill="url(#grid)"/><rect width="1920" height="1080" fill="url(#glow)"/><path d="M0 0H780C690 230 690 410 760 590C830 760 800 920 700 1080H0Z" fill="#04182C" opacity=".62"/><path d="M0 0H1060C900 250 900 455 1000 635C1090 800 1080 940 970 1080H0Z" fill="#0A2B4C" opacity=".24"/><g filter="url(#s)"><rect x="1108" y="295" width="366" height="492" rx="34" fill="url(#panel)" stroke="#fff" stroke-opacity=".2"/><rect x="1168" y="358" width="145" height="20" rx="10" fill="#F8F9FA" opacity=".55"/><rect x="1168" y="422" width="248" height="12" rx="6" fill="#fff" opacity=".18"/><rect x="1168" y="462" width="208" height="12" rx="6" fill="#fff" opacity=".13"/><rect x="1168" y="502" width="268" height="12" rx="6" fill="#fff" opacity=".15"/><circle cx="1300" cy="626" r="70" fill="#F2994A" opacity=".9"/><path d="M1265 626l23 24 49-54" fill="none" stroke="#fff" stroke-width="14" stroke-linecap="round" stroke-linejoin="round"/></g><g transform="translate(1505 292)" filter="url(#s)"><path d="M0 420 72 180l72 240" fill="none" stroke="#F8F9FA" stroke-opacity=".52" stroke-width="18" stroke-linecap="round" stroke-linejoin="round"/><path d="M72 180V64" stroke="#F2994A" stroke-width="18" stroke-linecap="round"/><circle cx="72" cy="48" r="24" fill="#F4B366"/><path d="M14 150C-52 86-52 4 14-60" fill="none" stroke="#F4B366" stroke-opacity=".36" stroke-width="12" stroke-linecap="round"/><path d="M130 150C196 86 196 4 130-60" fill="none" stroke="#F4B366" stroke-opacity=".36" stroke-width="12" stroke-linecap="round"/><path d="M-46 202C-146 104-146-16-46-114" fill="none" stroke="#fff" stroke-opacity=".16" stroke-width="9" stroke-linecap="round"/><path d="M190 202C290 104 290-16 190-114" fill="none" stroke="#fff" stroke-opacity=".16" stroke-width="9" stroke-linecap="round"/></g><path d="M1040 830H1840" stroke="#F4B366" stroke-width="4" opacity=".56"/><path d="M1200 895H1740" stroke="#F2994A" stroke-width="2" opacity=".4"/></svg>