<svg xmlns="http://www.w3.org/2000/svg" width="1920" height="1080" viewBox="0 0 1920 1080" role="img" aria-labelledby="title desc"><title id="title">Bilacert license exemptions hero background</title><desc id="desc">Brand-aligned Bilacert license exemptions hero artwork.</desc><defs><linearGradient id="bg" x1="0" y1="0" x2="1" y2="1"><stop offset="0" stop-color="#061D35"/><stop offset=".44" stop-color="#0A2B4C"/><stop offset="1" stop-color="#1A4A6B"/></linearGradient><radialGradient id="glow" cx="78%" cy="40%" r="58%"><stop offset="0" stop-color="#F4B366" stop-opacity=".35"/><stop offset=".45" stop-color="#F2994A" stop-opacity=".13"/><stop offset="1" stop-color="#F2994A" stop-opacity="0"/></radialGradient><linearGradient id="panel" x1="0" y1="0" x2="1" y2="1"><stop offset="0" stop-color="#fff" stop-opacity=".22"/><stop offset="1" stop-color="#fff" stop-opacity=".06"/></linearGradient><pattern id="grid" width="72" height="72" patternUnits="userSpaceOnUse"><path d="M72 0H0V72" fill="none" stroke="#fff" stroke-opacity=".045"/></pattern><filter id="s" x="-30%" y="-30%" width="160%" height="160%"><feDropShadow dx="0" dy="26" stdDeviation="22" flood-color="#02101E" flood-opacity=".34"/></filter></defs><rect width="1920" height="1080" fill="url(#bg)"/><rect width="1920" height="1080" fill="url(#grid)"/><rect width="1920" height="1080" fill="url(#glow)"/><path d="M0 0H780C690 230 690 410 760 590C830 760 800 920 700 1080H0Z" fill="#04182C" opacity=".62"/><path d="M0 0H1060C900 250 900 455 1000 635C1090 800 1080 940 970 1080H0Z" fill="#0A2B4C" opacity=".24"/><g filter="url(#s)"><rect x="1122" y="286" width="430" height="482" rx="34" fill="url(#panel)" stroke="#fff" stroke-opacity=".2"/><path d="M1214 386h246" stroke="#fff" stroke-opacity=".22" stroke-width="18" stroke-linecap="round"/><path d="M1214 452h208" stroke="#fff" stroke-opacity=".15" stroke-width="14" stroke-linecap="round"/><path d="M1214 504h256" stroke="#fff" stroke-opacity=".13" stroke-width="14" stroke-linecap="round"/><circle cx="1322" cy="626" r="74" fill="#F2994A" opacity=".88"/><path d="M1288 626l26 26 48-56" fill="none" stroke="#fff" stroke-width="13" stroke-linecap="round" stroke-linejoin="round"/></g><g transform="translate(1518 332)" filter="url(#s)"><path d="M176 42C246 88 278 160 270 238C258 352 162 426 74 452C28 382 0 290 20 196C38 112 94 62 176 42z" fill="#fff" fill-opacity=".12" stroke="#fff" stroke-opacity=".2" stroke-width="3"/><path d="M100 248l44 44 68-92" fill="none" stroke="#F4B366" stroke-width="22" stroke-linecap="round" stroke-linejoin="round"/><path d="M78 140h146M66 342h128" stroke="#fff" stroke-opacity=".14" stroke-width="12" stroke-linecap="round"/></g><path d="M1040 830H1840" stroke="#F4B366" stroke-width="4" opacity=".56"/><path d="M1200 895H1740" stroke="#F2994A" stroke-width="2" opacity=".4"/></svg>