<svg xmlns="http://www.w3.org/2000/svg" width="1920" height="1080" viewBox="0 0 1920 1080" role="img" aria-labelledby="title desc"><title id="title">Bilacert NRCS LOA hero background</title><desc id="desc">Brand-aligned Bilacert product certification hero artwork.</desc><defs><linearGradient id="bg" x1="0" y1="0" x2="1" y2="1"><stop offset="0" stop-color="#061D35"/><stop offset=".44" stop-color="#0A2B4C"/><stop offset="1" stop-color="#1A4A6B"/></linearGradient><radialGradient id="glow" cx="78%" cy="40%" r="58%"><stop offset="0" stop-color="#F4B366" stop-opacity=".35"/><stop offset=".45" stop-color="#F2994A" stop-opacity=".13"/><stop offset="1" stop-color="#F2994A" stop-opacity="0"/></radialGradient><linearGradient id="panel" x1="0" y1="0" x2="1" y2="1"><stop offset="0" stop-color="#fff" stop-opacity=".22"/><stop offset="1" stop-color="#fff" stop-opacity=".06"/></linearGradient><pattern id="grid" width="72" height="72" patternUnits="userSpaceOnUse"><path d="M72 0H0V72" fill="none" stroke="#fff" stroke-opacity=".045"/></pattern><filter id="s" x="-30%" y="-30%" width="160%" height="160%"><feDropShadow dx="0" dy="26" stdDeviation="22" flood-color="#02101E" flood-opacity=".34"/></filter></defs><rect width="1920" height="1080" fill="url(#bg)"/><rect width="1920" height="1080" fill="url(#grid)"/><rect width="1920" height="1080" fill="url(#glow)"/><path d="M0 0H780C690 230 690 410 760 590C830 760 800 920 700 1080H0Z" fill="#04182C" opacity=".62"/><path d="M0 0H1060C900 250 900 455 1000 635C1090 800 1080 940 970 1080H0Z" fill="#0A2B4C" opacity=".24"/><g filter="url(#s)"><rect x="1088" y="246" width="394" height="482" rx="34" fill="url(#panel)" stroke="#fff" stroke-opacity=".2"/><rect x="1148" y="314" width="132" height="20" rx="10" fill="#F8F9FA" opacity=".54"/><rect x="1148" y="382" width="280" height="12" rx="6" fill="#fff" opacity=".17"/><rect x="1148" y="424" width="244" height="12" rx="6" fill="#fff" opacity=".12"/><rect x="1148" y="466" width="304" height="12" rx="6" fill="#fff" opacity=".13"/><circle cx="1324" cy="594" r="82" fill="#F2994A" opacity=".86"/><circle cx="1324" cy="594" r="57" fill="none" stroke="#fff" stroke-width="8" stroke-opacity=".9"/><path d="M1292 596l24 25 45-53" fill="none" stroke="#fff" stroke-width="12" stroke-linecap="round" stroke-linejoin="round"/></g><g transform="translate(1520 470)" filter="url(#s)"><path d="M0 66 124 0l124 66-124 66z" fill="#F8F9FA" opacity=".18" stroke="#fff" stroke-opacity=".22"/><path d="M0 66v152l124 68V132z" fill="#fff" opacity=".13"/><path d="M248 66v152l-124 68V132z" fill="#0A2B4C" opacity=".44" stroke="#fff" stroke-opacity=".12"/><path d="M70 106v120" stroke="#F2994A" stroke-width="10" stroke-linecap="round"/><path d="M176 106v120" stroke="#F4B366" stroke-width="10" stroke-linecap="round" opacity=".82"/></g><path d="M1040 830H1840" stroke="#F4B366" stroke-width="4" opacity=".56"/><path d="M1200 895H1740" stroke="#F2994A" stroke-width="2" opacity=".4"/></svg>