<svg xmlns="http://www.w3.org/2000/svg" width="1920" height="1080" viewBox="0 0 1920 1080" role="img" aria-labelledby="title desc"><title id="title">Bilacert radio licensing hero background</title><desc id="desc">Brand-aligned Bilacert radio licensing hero artwork.</desc><defs><linearGradient id="bg" x1="0" y1="0" x2="1" y2="1"><stop offset="0" stop-color="#061D35"/><stop offset=".44" stop-color="#0A2B4C"/><stop offset="1" stop-color="#1A4A6B"/></linearGradient><radialGradient id="glow" cx="78%" cy="40%" r="58%"><stop offset="0" stop-color="#F4B366" stop-opacity=".35"/><stop offset=".45" stop-color="#F2994A" stop-opacity=".13"/><stop offset="1" stop-color="#F2994A" stop-opacity="0"/></radialGradient><linearGradient id="panel" x1="0" y1="0" x2="1" y2="1"><stop offset="0" stop-color="#fff" stop-opacity=".22"/><stop offset="1" stop-color="#fff" stop-opacity=".06"/></linearGradient><pattern id="grid" width="72" height="72" patternUnits="userSpaceOnUse"><path d="M72 0H0V72" fill="none" stroke="#fff" stroke-opacity=".045"/></pattern><filter id="s" x="-30%" y="-30%" width="160%" height="160%"><feDropShadow dx="0" dy="26" stdDeviation="22" flood-color="#02101E" flood-opacity=".34"/></filter></defs><rect width="1920" height="1080" fill="url(#bg)"/><rect width="1920" height="1080" fill="url(#grid)"/><rect width="1920" height="1080" fill="url(#glow)"/><path d="M0 0H780C690 230 690 410 760 590C830 760 800 920 700 1080H0Z" fill="#04182C" opacity=".62"/><path d="M0 0H1060C900 250 900 455 1000 635C1090 800 1080 940 970 1080H0Z" fill="#0A2B4C" opacity=".24"/><g transform="translate(1128 256)" filter="url(#s)"><rect x="0" y="260" width="336" height="252" rx="34" fill="url(#panel)" stroke="#fff" stroke-opacity=".2"/><rect x="68" y="324" width="200" height="28" rx="14" fill="#F8F9FA" opacity=".36"/><rect x="88" y="384" width="160" height="14" rx="7" fill="#fff" opacity=".18"/><circle cx="118" cy="454" r="32" fill="#F2994A" opacity=".88"/><circle cx="216" cy="454" r="32" fill="#fff" opacity=".15"/><path d="M168 260l42-176" stroke="#F4B366" stroke-width="14" stroke-linecap="round"/><path d="M210 84l40-84" stroke="#fff" stroke-width="8" stroke-opacity=".34" stroke-linecap="round"/></g><g transform="translate(1518 266)" filter="url(#s)"><circle cx="92" cy="92" r="16" fill="#F4B366"/><path d="M92 108v368" stroke="#F8F9FA" stroke-opacity=".45" stroke-width="16" stroke-linecap="round"/><path d="M40 476h104" stroke="#F8F9FA" stroke-opacity=".45" stroke-width="16" stroke-linecap="round"/><path d="M92 160 16 300h152z" fill="none" stroke="#fff" stroke-opacity=".2" stroke-width="12"/><path d="M24 118C-52 194-52 306 24 382" fill="none" stroke="#F4B366" stroke-opacity=".34" stroke-width="10" stroke-linecap="round"/><path d="M160 118C236 194 236 306 160 382" fill="none" stroke="#F4B366" stroke-opacity=".34" stroke-width="10" stroke-linecap="round"/></g><path d="M1040 830H1840" stroke="#F4B366" stroke-width="4" opacity=".56"/><path d="M1200 895H1740" stroke="#F2994A" stroke-width="2" opacity=".4"/></svg>