<svg xmlns="http://www.w3.org/2000/svg" width="1920" height="1080" viewBox="0 0 1920 1080" role="img" aria-labelledby="title desc"><title id="title">Bilacert services hero background</title><desc id="desc">Brand-aligned Bilacert compliance hero artwork.</desc><defs><linearGradient id="bg" x1="0" y1="0" x2="1" y2="1"><stop offset="0" stop-color="#061D35"/><stop offset=".44" stop-color="#0A2B4C"/><stop offset="1" stop-color="#1A4A6B"/></linearGradient><radialGradient id="glow" cx="78%" cy="40%" r="58%"><stop offset="0" stop-color="#F4B366" stop-opacity=".35"/><stop offset=".45" stop-color="#F2994A" stop-opacity=".13"/><stop offset="1" stop-color="#F2994A" stop-opacity="0"/></radialGradient><linearGradient id="panel" x1="0" y1="0" x2="1" y2="1"><stop offset="0" stop-color="#fff" stop-opacity=".22"/><stop offset="1" stop-color="#fff" stop-opacity=".06"/></linearGradient><pattern id="grid" width="72" height="72" patternUnits="userSpaceOnUse"><path d="M72 0H0V72" fill="none" stroke="#fff" stroke-opacity=".045"/></pattern><filter id="s" x="-30%" y="-30%" width="160%" height="160%"><feDropShadow dx="0" dy="26" stdDeviation="22" flood-color="#02101E" flood-opacity=".34"/></filter></defs><rect width="1920" height="1080" fill="url(#bg)"/><rect width="1920" height="1080" fill="url(#grid)"/><rect width="1920" height="1080" fill="url(#glow)"/><path d="M0 0H780C690 230 690 410 760 590C830 760 800 920 700 1080H0Z" fill="#04182C" opacity=".62"/><path d="M0 0H1060C900 250 900 455 1000 635C1090 800 1080 940 970 1080H0Z" fill="#0A2B4C" opacity=".24"/><g filter="url(#s)"><rect x="1096" y="250" width="500" height="370" rx="34" fill="url(#panel)" stroke="#fff" stroke-opacity=".2"/><rect x="1160" y="316" width="175" height="24" rx="12" fill="#F8F9FA" opacity=".58"/><rect x="1160" y="372" width="350" height="14" rx="7" fill="#fff" opacity=".18"/><rect x="1160" y="412" width="285" height="14" rx="7" fill="#fff" opacity=".14"/><rect x="1160" y="478" width="68" height="68" rx="18" fill="#F2994A"/><path d="M1179 512l15 15 21-31" fill="none" stroke="#fff" stroke-width="10" stroke-linecap="round" stroke-linejoin="round"/><rect x="1262" y="488" width="244" height="15" rx="8" fill="#fff" opacity=".22"/><rect x="1262" y="525" width="178" height="13" rx="7" fill="#fff" opacity=".14"/></g><g filter="url(#s)"><rect x="1370" y="510" width="340" height="238" rx="30" fill="#fff" fill-opacity=".12" stroke="#fff" stroke-opacity=".18"/><path d="M1540 560l62 30v48c0 55-28 81-62 99-34-18-62-44-62-99v-48z" fill="#F2994A" opacity=".88"/><path d="M1517 641l18 18 34-42" fill="none" stroke="#fff" stroke-width="11" stroke-linecap="round" stroke-linejoin="round"/></g><path d="M1040 830H1840" stroke="#F4B366" stroke-width="4" opacity=".56"/><path d="M1200 895H1740" stroke="#F2994A" stroke-width="2" opacity=".4"/></svg>